<svg xmlns="http://www.w3.org/2000/svg" width="720" height="399" viewBox="0 0 720 399" role="img" aria-labelledby="title desc">
  <title id="title">Sailwyn logo</title>
  <desc id="desc">Sailwyn wordmark with a signal and sail mark.</desc>
  <rect width="720" height="399" fill="#f7fbfa"/>
  <path d="M205 155h54c13 0 20 9 24 22l11 40 25-93 30 129 21-75c4-14 13-23 27-23h35" fill="none" stroke="#127f84" stroke-width="14" stroke-linecap="round" stroke-linejoin="round"/>
  <path d="M432 112c56 12 96 46 119 100-49-10-91-36-119-100Z" fill="#2bbfb3"/>
  <path d="M424 149c43 15 75 43 96 85-41-7-75-29-96-85Z" fill="#74d8cf"/>
  <path d="M448 127c29 17 55 43 79 78" fill="none" stroke="#0f6f73" stroke-width="6" stroke-linecap="round" opacity=".55"/>
  <text x="360" y="306" text-anchor="middle" font-family="Inter, Avenir Next, Helvetica, Arial, sans-serif" font-size="64" font-weight="800" letter-spacing="4" fill="#13242b">SAILWYN</text>
</svg>
